<svg width="48" height="48" viewBox="0 0 48 48" fill="none" xmlns="http://www.w3.org/2000/svg">
<path d="M24 0C10.7456 0 0 10.7451 0 24C0 37.2549 10.7456 48 24 48C37.2544 48 48 37.2549 48 24C48 10.7451 37.2544 0 24 0ZM9.37215 30.7082C9.09078 28.4631 9.2602 25.2983 9.54058 24.0599C9.84994 22.6884 10.6111 22.3461 11.9123 22.8676C14.483 23.8974 17.0463 24.9438 19.6086 25.9932C20.4178 26.3251 20.7738 26.8996 20.7385 27.7339C20.7041 28.5255 20.3122 29.0259 19.4716 29.2935C16.7723 30.1538 14.0739 31.0166 11.3673 31.8533C10.2909 32.1858 9.61277 31.8195 9.37215 30.7082ZM23.9317 41.8933C23.92 42.978 23.3631 43.5565 22.2872 43.4499C19.888 43.2128 17.6733 42.3952 15.687 41.033C14.7869 40.4153 14.7148 39.6222 15.4106 38.783C17.2515 36.5664 19.1116 34.3655 20.9771 32.1691C21.4991 31.5543 22.1983 31.4173 22.9501 31.7154C23.6533 31.9948 23.9779 32.4819 23.9818 33.3113C23.9892 34.7417 23.9838 36.1716 23.9838 37.602C23.9686 37.602 23.9529 37.602 23.9362 37.602C23.9357 39.033 23.9484 40.4634 23.9317 41.8933ZM23.9283 21.9754C23.5983 23.1687 22.4119 23.5183 21.4711 22.7041C21.0915 22.3756 20.7669 21.9577 20.4964 21.5315C17.8968 17.4479 15.3124 13.3546 12.7285 9.26118C11.9821 8.07922 12.1309 7.36622 13.383 6.7308C15.8614 5.47274 18.4968 4.71308 21.2766 4.54564C22.602 4.46609 23.068 4.91098 23.1598 6.22306C23.4854 10.9028 23.7938 15.5834 24.1208 20.4335C24.0737 20.8421 24.0786 21.4308 23.9283 21.9754ZM27.097 23.7103C28.7912 21.4127 30.475 19.1062 32.1819 16.8174C32.9125 15.8373 33.7075 15.7425 34.6121 16.5822C36.2914 18.1418 37.5461 20.0142 38.347 22.161C38.7811 23.3228 38.3975 24.002 37.1999 24.3099C34.4775 25.0101 31.7473 25.6809 29.0195 26.3605C28.8555 26.4007 28.6831 26.4106 28.5466 26.4297C27.8051 26.4091 27.2989 26.0565 26.9738 25.4515C26.6546 24.8559 26.6855 24.2671 27.097 23.7103ZM38.3745 35.1286C37.4479 36.9558 36.1932 38.5321 34.6548 39.8805C34.4176 40.0887 34.1421 40.2684 33.8573 40.4045C33.187 40.7241 32.5644 40.5916 32.173 39.9723C30.556 37.4154 28.9557 34.8473 27.3765 32.2673C26.9718 31.6024 27.1771 30.9429 27.65 30.3758C28.1027 29.8337 28.6905 29.6294 29.3706 29.8548C32.1612 30.7775 34.946 31.7139 37.7332 32.6469C38.3696 32.8595 38.7315 33.2749 38.7717 33.9953C38.6421 34.3739 38.5542 34.7741 38.3745 35.1286Z" fill="#DC2626"/>
</svg>
